<?xml version="1.0" encoding="utf-8"?>
<!-- Generator: Adobe Illustrator 19.1.0, SVG Export Plug-In . SVG Version: 6.00 Build 0)  -->
<!DOCTYPE svg PUBLIC "-//W3C//DTD SVG 1.1//EN" "http://www.w3.org/Graphics/SVG/1.1/DTD/svg11.dtd">
<svg version="1.1" id="Layer_1" xmlns="http://www.w3.org/2000/svg" xmlns:xlink="http://www.w3.org/1999/xlink" x="0px" y="0px"
	 viewBox="0 0 70 85" style="enable-background:new 0 0 70 85;" xml:space="preserve">
<path d="M35.1,3.9H34c-8.1,0-14.7,6.6-14.7,14.7v2.1h-14c-0.7,0-1.2,0.6-1.2,1.2v51.3C4,77,6.7,80,10,80h49.1c3.3,0,5.9-3.1,5.9-6.8
	V21.9c0-0.7-0.6-1.2-1.2-1.2h-14v-2.1C49.8,10.5,43.2,3.9,35.1,3.9z M21.8,18.6c0-6.7,5.5-12.2,12.2-12.2h1.1
	c6.7,0,12.2,5.5,12.2,12.2v2.1H21.8V18.6z M62.5,23.2v50.1c0,2.4-1.5,4.3-3.4,4.3H10c-1.9,0-3.4-1.9-3.4-4.3V23.2h12.7h2.5h25.5h2.5
	H62.5z"/>
</svg>
