<?xml version="1.0" encoding="utf-8"?>
<!-- Generator: Adobe Illustrator 18.0.0, SVG Export Plug-In . SVG Version: 6.00 Build 0)  -->
<!DOCTYPE svg PUBLIC "-//W3C//DTD SVG 1.1//EN" "http://www.w3.org/Graphics/SVG/1.1/DTD/svg11.dtd">
<svg version="1.1" id="Layer_1" xmlns="http://www.w3.org/2000/svg" xmlns:xlink="http://www.w3.org/1999/xlink" x="0px" y="0px"
	 width="20px" height="17px" viewBox="0 0 20 17" enable-background="new 0 0 20 17" xml:space="preserve">
<path d="M10,17l-0.3-0.3c-0.5-0.4-1.2-0.9-2-1.4C4.4,13.2,0,10.4,0,5.5C0,2.5,2.5,0,5.7,0C7.3,0,8.9,0.7,10,1.9
	C11.1,0.7,12.6,0,14.3,0C17.4,0,20,2.5,20,5.5c0,4.9-4.4,7.7-7.6,9.8c-0.8,0.5-1.5,1-2,1.4L10,17z M5.7,1C3.1,1,1,3,1,5.5
	c0,4.4,4.1,7,7.2,9c0.7,0.4,1.3,0.8,1.8,1.2c0.5-0.4,1.1-0.8,1.8-1.2c3-2,7.2-4.6,7.2-9C18.9,3,16.8,1,14.3,1c-1.6,0-3,0.8-3.9,2
	L10,3.6L9.6,3C8.7,1.8,7.2,1,5.7,1z"/>
</svg>
