<?xml version="1.0" encoding="utf-8"?>
<!-- Generator: Adobe Illustrator 18.0.0, SVG Export Plug-In . SVG Version: 6.00 Build 0)  -->
<!DOCTYPE svg PUBLIC "-//W3C//DTD SVG 1.1//EN" "http://www.w3.org/Graphics/SVG/1.1/DTD/svg11.dtd">
<svg version="1.1" id="Layer_1" xmlns="http://www.w3.org/2000/svg" xmlns:xlink="http://www.w3.org/1999/xlink" x="0px" y="0px"
	 width="16px" height="16px" viewBox="0 0 16 16" enable-background="new 0 0 16 16" xml:space="preserve">
<g>
	<g>
		<path d="M15.6,15.3L11,10.6c1-1.1,1.7-2.6,1.7-4.3C12.7,2.8,9.9,0,6.6,0C3.2,0,0.4,2.8,0.4,6.3c0,3.5,2.7,6.3,6.1,6.3
			c1.4,0,2.7-0.5,3.8-1.4l4.6,4.7L15.6,15.3z M1.4,6.3c0-3,2.3-5.4,5.2-5.4c2.9,0,5.2,2.4,5.2,5.4c0,3-2.3,5.4-5.2,5.4
			C3.7,11.7,1.4,9.3,1.4,6.3z"/>
	</g>
</g>
</svg>
